<?xml version="1.0" standalone="no"?><!DOCTYPE svg PUBLIC "-//W3C//DTD SVG 1.1//EN" "http://www.w3.org/Graphics/SVG/1.1/DTD/svg11.dtd"><svg t="1595057119930" class="icon" viewBox="0 0 1024 1024" version="1.1" xmlns="http://www.w3.org/2000/svg" p-id="1197" xmlns:xlink="http://www.w3.org/1999/xlink" width="200" height="200"><defs><style type="text/css"></style></defs><path d="M512 0C229.216 0 0 229.216 0 512c0 282.768 229.216 512 512 512 282.752 0 512-229.232 512-512C1024 229.216 794.752 0 512 0zM512 992C246.896 992 32 777.088 32 512 32 246.896 246.896 32 512 32c265.056 0 480 214.896 480 480C992 777.088 777.056 992 512 992z" p-id="1198" fill="#707070"></path><path d="M531.472 478.544c-3.152-3.168-7.328-4.688-11.456-4.656-4.16-0.048-8.32 1.488-11.472 4.656l-113.152 113.136c-6.256 6.256-6.24 16.368 0 22.624 6.256 6.256 16.384 6.256 22.64 0l85.968-85.968 0 205.664c0 8.848 7.168 16 16 16 8.848 0 16-7.152 16-16L536 528.336l85.968 85.968c6.256 6.256 16.368 6.256 22.624 0s6.256-16.368 0-22.624L531.472 478.544z" p-id="1199" fill="#707070"></path><path d="M712 400l-1.28 0c-10.88-95.68-92-170.08-190.72-170.08-87.36 0-161.12 58.4-184.32 138.24C333.12 368 330.56 368 328 368c-88.32 0-160 71.52-160 160 0 88.32 71.68 160 160 160l16 0c8.832 0 16-7.152 16-16s-7.168-16-16-16l-16 0c-70.72 0-128-57.44-128-128 0-70.72 57.28-128 128-128l1.28 0c10.88 0.16 21.6 1.6 31.68 4.32 1.12-10.88 3.52-21.28 6.72-31.36 20.64-64.48 81.12-111.04 152.32-111.04 82.24 0 149.92 62.08 158.88 141.92 0.816 5.92 1.12 12 1.12 18.08 0 4.96-0.16 10.08-0.64 14.88 10.08-3.04 20.96-4.8 32.336-4.8 0.16 0 0.16 0 0.32 0 61.92 0 112 50.08 112 112 0 61.744-50.08 112-112 112l-16 0c-8.848 0-16 7.152-16 16s7.152 16 16 16l16 0c79.52 0 144-64.496 144-144C856 464.48 791.52 400 712 400z" p-id="1200" fill="#707070"></path></svg>